# xmcd
#
# Track frame offsets:
# 150
# 16848
# 30333
# 45899
# 59482
# 71382
# 85515
# 97591
# 113337
# 126658
# 137742
# 154737
# 167338
#
# Disc length: 2447 seconds
#
#
# Revision: 0
# Processed by: cddbd v1.5.2PL0 Copyright (c) Steve Scherf et al.
# Submitted via: FreeRIP 2.941 
#
DISCID=8b098d0d
DTITLE=Country Company - Take 2
DYEAR=1900
DGENRE=Country
TTITLE0=I Won't Take Less Than Your Love
TTITLE1=This Cold, Cold War With You
TTITLE2=Rockin Years
TTITLE3=You Can't Break The Chains Of Love
TTITLE4=Something Stupid
TTITLE5=Golden Ring
TTITLE6=Love Is No Excuse
TTITLE7=A Good Year For The Roses
TTITLE8=All I Have To Do Is Dream
TTITLE9=Just Someone I used To Know
TTITLE10=My Elusive Dreams
TTITLE11=Crying Time
TTITLE12=All Fall Down
EXTD=
EXTT0=
EXTT1=
EXTT2=
EXTT3=
EXTT4=
EXTT5=
EXTT6=
EXTT7=
EXTT8=
EXTT9=
EXTT10=
EXTT11=
EXTT12=
PLAYORDER=
